<svg width="41" height="38" viewBox="0 0 41 38" fill="none" xmlns="http://www.w3.org/2000/svg">
    <path d="M22.5625 1.97917C26.3418 1.97917 29.9664 3.4805 32.6388 6.1529C35.3112 8.82529 36.8125 12.4498 36.8125 16.2292" stroke="#628E82" stroke-width="3" stroke-miterlimit="10" stroke-linecap="round" stroke-linejoin="round"/>
    <path d="M22.5625 8.3125C24.6621 8.3125 26.6758 9.14658 28.1604 10.6312C29.6451 12.1159 30.4792 14.1295 30.4792 16.2292" stroke="#628E82" stroke-width="3" stroke-miterlimit="10" stroke-linecap="round" stroke-linejoin="round"/>
    <path d="M24.97 23.3067L22.2601 26.6942C18.063 24.2275 14.5652 20.7301 12.0983 16.5332L15.4858 13.8233C15.8827 13.5054 16.1632 13.065 16.2836 12.5709C16.4039 12.0768 16.3572 11.5568 16.1508 11.092L13.0625 4.13883C12.8412 3.63999 12.4498 3.236 11.9583 2.99893C11.4667 2.76185 10.9069 2.7071 10.3788 2.84446L4.50142 4.36921C3.95291 4.51252 3.47603 4.85206 3.16115 5.3235C2.84627 5.79494 2.71528 6.36551 2.793 6.92708C3.82458 14.2727 7.21952 21.0828 12.4646 26.3279C17.7097 31.5729 24.5198 34.9679 31.8654 35.9995C32.4268 36.077 32.9972 35.9459 33.4685 35.631C33.9397 35.3162 34.2792 34.8394 34.4225 34.291L35.9472 28.4129C36.0843 27.8848 36.0295 27.3253 35.7926 26.8338C35.5557 26.3423 35.1521 25.9509 34.6536 25.7292L27.7012 22.6417C27.2365 22.4352 26.7164 22.3884 26.2223 22.5087C25.7281 22.629 25.2878 22.9096 24.97 23.3067Z" fill="#628E82" stroke="#628E82" stroke-miterlimit="10" stroke-linecap="round" stroke-linejoin="round"/>
</svg>
